<svg id="583f55cb-9f74-436c-883b-00d72cee6a7a" data-name="圖層 1" xmlns="http://www.w3.org/2000/svg" viewBox="0 0 153.83 147.33"><defs><style>.b8b503e6-189b-4221-a971-d1d0bec5be46{fill:#e6af2e;}.\37 b36138d-36f0-4c86-806d-45afe227dd7d,.\39 3ee851d-9bc3-4a5a-ae63-1be3d4d3230c,.b8b503e6-189b-4221-a971-d1d0bec5be46,.d9e2054c-1864-45d2-85cf-abfbbc3b5c04{stroke:#495338;stroke-miterlimit:10;stroke-width:1.3px;}.\37 b36138d-36f0-4c86-806d-45afe227dd7d,.d9e2054c-1864-45d2-85cf-abfbbc3b5c04{fill:none;}.\39 3ee851d-9bc3-4a5a-ae63-1be3d4d3230c{fill:#ececec;}.d9e2054c-1864-45d2-85cf-abfbbc3b5c04{stroke-dasharray:2;}</style></defs><title>w</title><rect class="b8b503e6-189b-4221-a971-d1d0bec5be46" x="17.16" y="37.09" width="32.41" height="53.21" transform="translate(22.34 -7.36) rotate(18.83)"/><polygon class="b8b503e6-189b-4221-a971-d1d0bec5be46" points="26.68 33.59 28.69 37.94 53.43 46.38 57.74 44.26 26.68 33.59"/><line class="b8b503e6-189b-4221-a971-d1d0bec5be46" x1="41.1" y1="42.17" x2="25.32" y2="88.45"/><polygon class="b8b503e6-189b-4221-a971-d1d0bec5be46" points="32.74 59.77 26.88 67.34 37.64 64.66 32.74 59.77"/><rect class="7b36138d-36f0-4c86-806d-45afe227dd7d" x="64.34" y="35.79" width="79.1" height="60.65"/><rect class="7b36138d-36f0-4c86-806d-45afe227dd7d" x="70.55" y="41.11" width="66.68" height="50.02"/><polygon class="b8b503e6-189b-4221-a971-d1d0bec5be46" points="123.86 46.34 120.14 57.2 131.3 50 123.86 46.34"/><circle class="b8b503e6-189b-4221-a971-d1d0bec5be46" cx="103.89" cy="94.37" r="12.71"/><rect class="93ee851d-9bc3-4a5a-ae63-1be3d4d3230c" x="39.89" y="76.57" width="60.7" height="41.28"/><rect class="93ee851d-9bc3-4a5a-ae63-1be3d4d3230c" x="44.27" y="81.63" width="18.28" height="18.28"/><polygon class="b8b503e6-189b-4221-a971-d1d0bec5be46" points="53.45 83.86 48.39 98.63 63.57 88.83 53.45 83.86"/><rect class="93ee851d-9bc3-4a5a-ae63-1be3d4d3230c" x="67.61" y="109.66" width="27.72" height="4.25" transform="translate(162.94 223.56) rotate(180)"/><rect class="93ee851d-9bc3-4a5a-ae63-1be3d4d3230c" x="67.61" y="90.64" width="27.72" height="14.13" transform="translate(162.94 195.4) rotate(180)"/><rect class="93ee851d-9bc3-4a5a-ae63-1be3d4d3230c" x="67.61" y="81.63" width="27.72" height="4.25" transform="translate(162.94 167.51) rotate(180)"/><path class="d9e2054c-1864-45d2-85cf-abfbbc3b5c04" d="M53.22,118.88s-.52,6.71-.1,7.13,77.79.12,77.79.12V96.72"/></svg>